<svg width="16" height="16" viewBox="0 0 25 25" fill="none" xmlns="http://www.w3.org/2000/svg">
<path fill-rule="evenodd" clip-rule="evenodd" d="M2.57181 7.25931C2.64438 7.18655 2.73059 7.12883 2.8255 7.08944C2.92042 7.05006 3.02217 7.02979 3.12493 7.02979C3.22769 7.02979 3.32945 7.05006 3.42436 7.08944C3.51927 7.12883 3.60549 7.18655 3.67806 7.25931L12.4999 16.0827L21.3218 7.25931C21.3944 7.18667 21.4807 7.12905 21.5756 7.08974C21.6705 7.05043 21.7722 7.03019 21.8749 7.03019C21.9777 7.03019 22.0794 7.05043 22.1743 7.08974C22.2692 7.12905 22.3554 7.18667 22.4281 7.25931C22.5007 7.33194 22.5583 7.41818 22.5976 7.51308C22.6369 7.60799 22.6572 7.70971 22.6572 7.81243C22.6572 7.91516 22.6369 8.01688 22.5976 8.11178C22.5583 8.20669 22.5007 8.29292 22.4281 8.36556L13.0531 17.7406C12.9805 17.8133 12.8943 17.871 12.7994 17.9104C12.7044 17.9498 12.6027 17.9701 12.4999 17.9701C12.3972 17.9701 12.2954 17.9498 12.2005 17.9104C12.1056 17.871 12.0194 17.8133 11.9468 17.7406L2.57181 8.36556C2.49905 8.29299 2.44133 8.20677 2.40194 8.11186C2.36256 8.01694 2.34229 7.91519 2.34229 7.81243C2.34229 7.70967 2.36256 7.60792 2.40194 7.513C2.44133 7.41809 2.49905 7.33188 2.57181 7.25931Z" fill="#121212"/>
</svg>
