<svg width="25" height="25" viewBox="0 0 25 25" fill="none" xmlns="http://www.w3.org/2000/svg">
<path d="M9.375 12.5C10.6182 12.5 11.8105 12.0061 12.6896 11.1271C13.5686 10.248 14.0625 9.0557 14.0625 7.8125C14.0625 6.5693 13.5686 5.37701 12.6896 4.49794C11.8105 3.61886 10.6182 3.125 9.375 3.125C8.1318 3.125 6.93951 3.61886 6.06044 4.49794C5.18136 5.37701 4.6875 6.5693 4.6875 7.8125C4.6875 9.0557 5.18136 10.248 6.06044 11.1271C6.93951 12.0061 8.1318 12.5 9.375 12.5ZM1.5625 21.875C1.5625 21.875 0 21.875 0 20.3125C0 18.75 1.5625 14.0625 9.375 14.0625C17.1875 14.0625 18.75 18.75 18.75 20.3125C18.75 21.875 17.1875 21.875 17.1875 21.875H1.5625ZM17.1875 5.46875C17.1875 5.26155 17.2698 5.06284 17.4163 4.91632C17.5628 4.76981 17.7615 4.6875 17.9688 4.6875H24.2188C24.426 4.6875 24.6247 4.76981 24.7712 4.91632C24.9177 5.06284 25 5.26155 25 5.46875C25 5.67595 24.9177 5.87466 24.7712 6.02118C24.6247 6.16769 24.426 6.25 24.2188 6.25H17.9688C17.7615 6.25 17.5628 6.16769 17.4163 6.02118C17.2698 5.87466 17.1875 5.67595 17.1875 5.46875ZM17.9688 9.375C17.7615 9.375 17.5628 9.45731 17.4163 9.60382C17.2698 9.75034 17.1875 9.94905 17.1875 10.1562C17.1875 10.3635 17.2698 10.5622 17.4163 10.7087C17.5628 10.8552 17.7615 10.9375 17.9688 10.9375H24.2188C24.426 10.9375 24.6247 10.8552 24.7712 10.7087C24.9177 10.5622 25 10.3635 25 10.1562C25 9.94905 24.9177 9.75034 24.7712 9.60382C24.6247 9.45731 24.426 9.375 24.2188 9.375H17.9688ZM21.0938 14.0625C20.8865 14.0625 20.6878 14.1448 20.5413 14.2913C20.3948 14.4378 20.3125 14.6365 20.3125 14.8438C20.3125 15.051 20.3948 15.2497 20.5413 15.3962C20.6878 15.5427 20.8865 15.625 21.0938 15.625H24.2188C24.426 15.625 24.6247 15.5427 24.7712 15.3962C24.9177 15.2497 25 15.051 25 14.8438C25 14.6365 24.9177 14.4378 24.7712 14.2913C24.6247 14.1448 24.426 14.0625 24.2188 14.0625H21.0938ZM21.0938 18.75C20.8865 18.75 20.6878 18.8323 20.5413 18.9788C20.3948 19.1253 20.3125 19.324 20.3125 19.5312C20.3125 19.7385 20.3948 19.9372 20.5413 20.0837C20.6878 20.2302 20.8865 20.3125 21.0938 20.3125H24.2188C24.426 20.3125 24.6247 20.2302 24.7712 20.0837C24.9177 19.9372 25 19.7385 25 19.5312C25 19.324 24.9177 19.1253 24.7712 18.9788C24.6247 18.8323 24.426 18.75 24.2188 18.75H21.0938Z" fill="#1E4061"/>
</svg>
