<svg width="16" height="16" viewBox="0 0 16 16" fill="none" xmlns="http://www.w3.org/2000/svg">
<g clip-path="url(#clip0_353_912)">
<path d="M10.854 7.14592C10.9006 7.19236 10.9375 7.24754 10.9627 7.30828C10.9879 7.36903 11.0009 7.43415 11.0009 7.49992C11.0009 7.56568 10.9879 7.63081 10.9627 7.69155C10.9375 7.7523 10.9006 7.80747 10.854 7.85392L7.85402 10.8539C7.80758 10.9005 7.7524 10.9374 7.69166 10.9626C7.63091 10.9878 7.56579 11.0008 7.50002 11.0008C7.43425 11.0008 7.36913 10.9878 7.30839 10.9626C7.24764 10.9374 7.19247 10.9005 7.14602 10.8539L5.64602 9.35392C5.59953 9.30743 5.56266 9.25224 5.5375 9.1915C5.51234 9.13076 5.49939 9.06566 5.49939 8.99992C5.49939 8.93417 5.51234 8.86907 5.5375 8.80833C5.56266 8.74759 5.59953 8.6924 5.64602 8.64592C5.73991 8.55203 5.86725 8.49929 6.00002 8.49929C6.06577 8.49929 6.13087 8.51223 6.19161 8.53739C6.25234 8.56255 6.30753 8.59943 6.35402 8.64592L7.50002 9.79292L10.146 7.14592C10.1925 7.09935 10.2476 7.06241 10.3084 7.0372C10.3691 7.012 10.4343 6.99902 10.5 6.99902C10.5658 6.99902 10.6309 7.012 10.6917 7.0372C10.7524 7.06241 10.8076 7.09935 10.854 7.14592Z" fill="#1E4061"/>
<path d="M3.5 0C3.63261 0 3.75979 0.0526784 3.85355 0.146447C3.94732 0.240215 4 0.367392 4 0.5V1H12V0.5C12 0.367392 12.0527 0.240215 12.1464 0.146447C12.2402 0.0526784 12.3674 0 12.5 0C12.6326 0 12.7598 0.0526784 12.8536 0.146447C12.9473 0.240215 13 0.367392 13 0.5V1H14C14.5304 1 15.0391 1.21071 15.4142 1.58579C15.7893 1.96086 16 2.46957 16 3V14C16 14.5304 15.7893 15.0391 15.4142 15.4142C15.0391 15.7893 14.5304 16 14 16H2C1.46957 16 0.960859 15.7893 0.585786 15.4142C0.210714 15.0391 0 14.5304 0 14V3C0 2.46957 0.210714 1.96086 0.585786 1.58579C0.960859 1.21071 1.46957 1 2 1H3V0.5C3 0.367392 3.05268 0.240215 3.14645 0.146447C3.24021 0.0526784 3.36739 0 3.5 0ZM1 4V14C1 14.2652 1.10536 14.5196 1.29289 14.7071C1.48043 14.8946 1.73478 15 2 15H14C14.2652 15 14.5196 14.8946 14.7071 14.7071C14.8946 14.5196 15 14.2652 15 14V4H1Z" fill="#1E4061"/>
</g>
<defs>
<clipPath id="clip0_353_912">
<rect width="16" height="16" fill="white"/>
</clipPath>
</defs>
</svg>
