<svg width="25" height="25" viewBox="0 0 25 25" fill="none" xmlns="http://www.w3.org/2000/svg">
<path d="M21.875 1.5625C22.2894 1.5625 22.6868 1.72712 22.9799 2.02015C23.2729 2.31317 23.4375 2.7106 23.4375 3.125V15.625C23.4375 16.0394 23.2729 16.4368 22.9799 16.7299C22.6868 17.0229 22.2894 17.1875 21.875 17.1875H6.89688C6.06814 17.1877 5.27341 17.517 4.6875 18.1031L1.5625 21.2281V3.125C1.5625 2.7106 1.72712 2.31317 2.02015 2.02015C2.31317 1.72712 2.7106 1.5625 3.125 1.5625H21.875ZM3.125 0C2.2962 0 1.50134 0.32924 0.915291 0.915291C0.32924 1.50134 0 2.2962 0 3.125L0 23.1141C3.28357e-05 23.2686 0.0459259 23.4198 0.131871 23.5482C0.217816 23.6767 0.339948 23.7768 0.482811 23.8359C0.625675 23.8949 0.782845 23.9103 0.934431 23.88C1.08602 23.8497 1.2252 23.7751 1.33437 23.6656L5.79219 19.2078C6.08514 18.9148 6.48251 18.7501 6.89688 18.75H21.875C22.7038 18.75 23.4987 18.4208 24.0847 17.8347C24.6708 17.2487 25 16.4538 25 15.625V3.125C25 2.2962 24.6708 1.50134 24.0847 0.915291C23.4987 0.32924 22.7038 0 21.875 0L3.125 0Z" fill="#1E4061"/>
<path d="M7.8125 9.375C7.8125 9.7894 7.64788 10.1868 7.35485 10.4799C7.06183 10.7729 6.6644 10.9375 6.25 10.9375C5.8356 10.9375 5.43817 10.7729 5.14515 10.4799C4.85212 10.1868 4.6875 9.7894 4.6875 9.375C4.6875 8.9606 4.85212 8.56317 5.14515 8.27015C5.43817 7.97712 5.8356 7.8125 6.25 7.8125C6.6644 7.8125 7.06183 7.97712 7.35485 8.27015C7.64788 8.56317 7.8125 8.9606 7.8125 9.375ZM14.0625 9.375C14.0625 9.7894 13.8979 10.1868 13.6049 10.4799C13.3118 10.7729 12.9144 10.9375 12.5 10.9375C12.0856 10.9375 11.6882 10.7729 11.3951 10.4799C11.1021 10.1868 10.9375 9.7894 10.9375 9.375C10.9375 8.9606 11.1021 8.56317 11.3951 8.27015C11.6882 7.97712 12.0856 7.8125 12.5 7.8125C12.9144 7.8125 13.3118 7.97712 13.6049 8.27015C13.8979 8.56317 14.0625 8.9606 14.0625 9.375ZM20.3125 9.375C20.3125 9.7894 20.1479 10.1868 19.8549 10.4799C19.5618 10.7729 19.1644 10.9375 18.75 10.9375C18.3356 10.9375 17.9382 10.7729 17.6451 10.4799C17.3521 10.1868 17.1875 9.7894 17.1875 9.375C17.1875 8.9606 17.3521 8.56317 17.6451 8.27015C17.9382 7.97712 18.3356 7.8125 18.75 7.8125C19.1644 7.8125 19.5618 7.97712 19.8549 8.27015C20.1479 8.56317 20.3125 8.9606 20.3125 9.375Z" fill="#1E4061"/>
</svg>
