<svg width="50" height="50" viewBox="0 0 50 50" fill="none" xmlns="http://www.w3.org/2000/svg">
<path fill-rule="evenodd" clip-rule="evenodd" d="M24.3001 17.3531C24.5174 17.2442 24.757 17.1875 25.0001 17.1875C25.2431 17.1875 25.4828 17.2442 25.7001 17.3531L44.4501 26.7281C44.6351 26.819 44.8004 26.9457 44.9362 27.1008C45.0721 27.2559 45.1759 27.4364 45.2417 27.6319C45.3075 27.8273 45.334 28.0338 45.3196 28.2395C45.3052 28.4452 45.2502 28.646 45.1578 28.8304C45.0654 29.0147 44.9375 29.179 44.7813 29.3137C44.6251 29.4483 44.4439 29.5507 44.2479 29.615C44.052 29.6793 43.8453 29.7042 43.6397 29.6882C43.4341 29.6722 43.2337 29.6156 43.0501 29.5218L25.0001 20.4999L6.95008 29.5218C6.76644 29.6156 6.56606 29.6722 6.36047 29.6882C6.15488 29.7042 5.94816 29.6793 5.75222 29.615C5.55629 29.5507 5.37501 29.4483 5.21885 29.3137C5.06269 29.179 4.93473 29.0147 4.84234 28.8304C4.74996 28.646 4.69498 28.4452 4.68057 28.2395C4.66617 28.0338 4.69263 27.8273 4.75842 27.6319C4.82421 27.4364 4.92803 27.2559 5.06391 27.1008C5.19978 26.9457 5.36501 26.819 5.55008 26.7281L24.3001 17.3531Z" fill="#D6D6D6"/>
</svg>
