<svg width="30" height="30" viewBox="0 0 44 44" fill="none" xmlns="http://www.w3.org/2000/svg">
<path d="M17.8804 19.25C18.4221 19.25 18.9585 19.1433 19.4589 18.936C19.9594 18.7287 20.4141 18.4249 20.7972 18.0418C21.1802 17.6588 21.4841 17.204 21.6914 16.7036C21.8987 16.2031 22.0054 15.6667 22.0054 15.125C22.0054 14.5833 21.8987 14.0469 21.6914 13.5464C21.4841 13.046 21.1802 12.5912 20.7972 12.2082C20.4141 11.8251 19.9594 11.5213 19.4589 11.314C18.9585 11.1067 18.4221 11 17.8804 11C16.7864 11 15.7371 11.4346 14.9636 12.2082C14.19 12.9818 13.7554 14.031 13.7554 15.125C13.7554 16.219 14.19 17.2682 14.9636 18.0418C15.7371 18.8154 16.7864 19.25 17.8804 19.25Z" fill="#D6D6D6"/>
<path d="M38.5 38.5C38.5 39.9587 37.9205 41.3576 36.8891 42.3891C35.8576 43.4205 34.4587 44 33 44H11C9.54131 44 8.14236 43.4205 7.11091 42.3891C6.07946 41.3576 5.5 39.9587 5.5 38.5V5.5C5.5 4.04131 6.07946 2.64236 7.11091 1.61091C8.14236 0.579463 9.54131 0 11 0L26.125 0L38.5 12.375V38.5ZM11 2.75C10.2707 2.75 9.57118 3.03973 9.05546 3.55546C8.53973 4.07118 8.25 4.77065 8.25 5.5V33L14.366 26.884C14.5827 26.6678 14.8655 26.5301 15.1693 26.4927C15.4732 26.4553 15.7808 26.5205 16.0435 26.6777L22 30.25L27.9317 21.945C28.0478 21.7827 28.1978 21.6476 28.3713 21.549C28.5449 21.4505 28.7378 21.391 28.9366 21.3745C29.1355 21.358 29.3356 21.385 29.523 21.4536C29.7103 21.5222 29.8805 21.6308 30.0217 21.7717L35.75 27.5V12.375H30.25C29.156 12.375 28.1068 11.9404 27.3332 11.1668C26.5596 10.3932 26.125 9.34402 26.125 8.25V2.75H11Z" fill="#D6D6D6"/>
</svg>
