<svg width="171" height="50" viewBox="0 0 171 50" fill="none" xmlns="http://www.w3.org/2000/svg">
<rect x="0.5" y="0.5" width="170" height="49" rx="19.5" fill="#F6D468" stroke="black"/>
<path d="M30.866 31H28.8972L32.4818 20.8182H34.7587L38.3482 31H36.3795L33.66 22.9062H33.5805L30.866 31ZM30.9306 27.0078H36.2999V28.4893H30.9306V27.0078ZM41.5338 20.8182V31H39.6893V20.8182H41.5338ZM49.1495 25.862H50.9975V29.502H49.1495V25.862ZM53.8535 25.862H55.7155V29.502H53.8535V25.862ZM46.5735 29.236H58.3055V30.748H46.5735V29.236ZM52.4255 19.912C55.2115 19.912 57.2695 21.284 57.2695 23.398C57.2695 25.512 55.2115 26.87 52.4255 26.87C49.6255 26.87 47.5815 25.512 47.5815 23.398C47.5815 21.284 49.6255 19.912 52.4255 19.912ZM52.4255 21.368C50.6195 21.368 49.4155 22.11 49.4155 23.398C49.4155 24.672 50.6195 25.428 52.4255 25.428C54.2315 25.428 55.4355 24.672 55.4355 23.398C55.4355 22.11 54.2315 21.368 52.4255 21.368ZM69.0704 20.962H71.3104V22.488H69.0704V20.962ZM69.0704 23.776H71.3104V25.302H69.0704V23.776ZM67.7824 19.282H69.6444V26.926H67.7824V19.282ZM60.9924 27.458H69.6444V32.246H67.7824V28.942H60.9924V27.458ZM63.0504 19.982C65.0524 19.982 66.5784 21.312 66.5784 23.16C66.5784 25.008 65.0524 26.324 63.0504 26.324C61.0484 26.324 59.5224 25.008 59.5224 23.16C59.5224 21.312 61.0484 19.982 63.0504 19.982ZM63.0504 21.564C62.0704 21.564 61.3424 22.138 61.3424 23.16C61.3424 24.182 62.0704 24.77 63.0504 24.77C64.0304 24.77 64.7584 24.182 64.7584 23.16C64.7584 22.138 64.0304 21.564 63.0504 21.564ZM75.804 29.236H87.536V30.748H75.804V29.236ZM80.718 26.464H82.58V29.6H80.718V26.464ZM77.036 20.108H78.884V22.096H84.414V20.108H86.262V26.856H77.036V20.108ZM78.884 23.552V25.372H84.414V23.552H78.884ZM97.6569 19.268H99.5189V32.274H97.6569V19.268ZM95.6269 23.944H98.0349V25.442H95.6269V23.944ZM89.1169 27.738H90.1809C92.2809 27.738 93.9469 27.696 95.8229 27.374L95.9909 28.886C94.0729 29.208 92.3369 29.278 90.1809 29.278H89.1169V27.738ZM89.0889 20.374H94.9269V25.246H90.9649V28.2H89.1169V23.776H93.0929V21.858H89.0889V20.374ZM109.836 19.268H111.712V32.232H109.836V19.268ZM111.222 24.224H113.504V25.75H111.222V24.224ZM106.434 20.612H108.254C108.254 24.504 106.77 27.836 102.458 30.006L101.422 28.592C104.824 26.828 106.434 24.448 106.434 20.934V20.612ZM102.136 20.612H107.386V22.11H102.136V20.612ZM123.359 19.282H125.235V32.246H123.359V19.282ZM119.537 20.626H121.385C121.385 24.588 120.041 27.836 115.435 30.062L114.469 28.578C118.193 26.786 119.537 24.434 119.537 20.962V20.626ZM115.155 20.626H120.419V22.096H115.155V20.626Z" fill="black"/>
<path fill-rule="evenodd" clip-rule="evenodd" d="M150.796 19.646C150.842 19.5995 150.897 19.5625 150.958 19.5373C151.019 19.5121 151.084 19.4991 151.15 19.4991C151.216 19.4991 151.281 19.5121 151.341 19.5373C151.402 19.5625 151.457 19.5995 151.504 19.646L157.504 25.646C157.55 25.6925 157.587 25.7477 157.613 25.8084C157.638 25.8692 157.651 25.9343 157.651 26C157.651 26.0658 157.638 26.1309 157.613 26.1917C157.587 26.2524 157.55 26.3076 157.504 26.354L151.504 32.354C151.41 32.4479 151.283 32.5007 151.15 32.5007C151.017 32.5007 150.89 32.4479 150.796 32.354C150.702 32.2602 150.649 32.1328 150.649 32C150.649 31.8673 150.702 31.7399 150.796 31.646L156.443 26L150.796 20.354C150.749 20.3076 150.712 20.2524 150.687 20.1917C150.662 20.1309 150.649 20.0658 150.649 20C150.649 19.9343 150.662 19.8692 150.687 19.8084C150.712 19.7477 150.749 19.6925 150.796 19.646Z" fill="black"/>
</svg>
