<svg width="180" height="50" viewBox="0 0 180 50" fill="none" xmlns="http://www.w3.org/2000/svg">
<rect x="0.5" y="0.5" width="179" height="49" rx="19.5" fill="#F6D468" stroke="black"/>
<path d="M26.9983 19.282H28.7763V32.246H26.9983V19.282ZM22.0703 24.014H25.0803V25.512H22.0703V24.014ZM24.3243 19.506H26.0603V31.672H24.3243V19.506ZM18.0103 27.836H18.9063C20.7403 27.836 21.9583 27.794 23.3863 27.514L23.5263 29.026C22.0843 29.32 20.7963 29.376 18.9063 29.376H18.0103V27.836ZM18.0103 20.738H22.9523V22.222H19.8443V28.48H18.0103V20.738ZM34.1652 19.66C36.1392 19.66 37.6232 20.892 37.6232 22.628C37.6232 24.35 36.1392 25.582 34.1652 25.582C32.1912 25.582 30.7072 24.35 30.7072 22.628C30.7072 20.892 32.1912 19.66 34.1652 19.66ZM34.1652 21.172C33.2132 21.172 32.4992 21.704 32.4992 22.628C32.4992 23.552 33.2132 24.084 34.1652 24.084C35.1172 24.084 35.8172 23.552 35.8172 22.628C35.8172 21.704 35.1172 21.172 34.1652 21.172ZM39.4152 19.282H41.2912V25.764H39.4152V19.282ZM32.6392 26.296H41.2912V29.852H34.4872V31.42H32.6672V28.508H39.4432V27.738H32.6392V26.296ZM32.6672 30.664H41.6132V32.106H32.6672V30.664ZM52.3221 19.268H54.1841V32.274H52.3221V19.268ZM44.0901 27.738H45.2381C47.5341 27.738 49.3681 27.654 51.4261 27.304L51.6081 28.802C49.5081 29.18 47.6041 29.25 45.2381 29.25H44.0901V27.738ZM44.0761 20.374H50.1941V25.386H45.9801V28.298H44.0901V23.916H48.2901V21.858H44.0761V20.374ZM62.5836 22.642H64.0256V23.314C64.0256 26.044 62.8636 28.802 60.5116 29.852L59.5036 28.424C61.6176 27.458 62.5836 25.26 62.5836 23.314V22.642ZM62.9896 22.642H64.4316V23.314C64.4316 25.162 65.3416 27.234 67.3716 28.214L66.3776 29.628C64.0956 28.578 62.9896 25.918 62.9896 23.314V22.642ZM59.9516 21.396H67.0076V22.866H59.9516V21.396ZM62.5696 19.576H64.4316V22.152H62.5696V19.576ZM68.0296 19.282H69.9056V32.246H68.0296V19.282ZM69.4856 24.308H71.7816V25.848H69.4856V24.308ZM74.0065 25.96H83.1205V27.416H74.0065V25.96ZM72.6345 29.25H84.3665V30.762H72.6345V29.25ZM74.0065 20.22H83.0085V21.718H75.8965V26.366H74.0065V20.22ZM75.3225 23.076H82.7145V24.518H75.3225V23.076ZM88.9861 29.236H100.718V30.748H88.9861V29.236ZM93.9001 26.464H95.7621V29.6H93.9001V26.464ZM90.2181 20.108H92.0661V22.096H97.5961V20.108H99.4441V26.856H90.2181V20.108ZM92.0661 23.552V25.372H97.5961V23.552H92.0661ZM110.839 19.268H112.701V32.274H110.839V19.268ZM108.809 23.944H111.217V25.442H108.809V23.944ZM102.299 27.738H103.363C105.463 27.738 107.129 27.696 109.005 27.374L109.173 28.886C107.255 29.208 105.519 29.278 103.363 29.278H102.299V27.738ZM102.271 20.374H108.109V25.246H104.147V28.2H102.299V23.776H106.275V21.858H102.271V20.374ZM123.018 19.268H124.894V32.232H123.018V19.268ZM124.404 24.224H126.686V25.75H124.404V24.224ZM119.616 20.612H121.436C121.436 24.504 119.952 27.836 115.64 30.006L114.604 28.592C118.006 26.828 119.616 24.448 119.616 20.934V20.612ZM115.318 20.612H120.568V22.11H115.318V20.612ZM136.541 19.282H138.417V32.246H136.541V19.282ZM132.719 20.626H134.567C134.567 24.588 133.223 27.836 128.617 30.062L127.651 28.578C131.375 26.786 132.719 24.434 132.719 20.962V20.626ZM128.337 20.626H133.601V22.096H128.337V20.626Z" fill="black"/>
<path fill-rule="evenodd" clip-rule="evenodd" d="M151.646 19.646C151.692 19.5994 151.748 19.5625 151.808 19.5373C151.869 19.5121 151.934 19.4991 152 19.4991C152.066 19.4991 152.131 19.5121 152.192 19.5373C152.252 19.5625 152.307 19.5994 152.354 19.646L158.354 25.646C158.4 25.6924 158.437 25.7476 158.463 25.8083C158.488 25.8691 158.501 25.9342 158.501 26C158.501 26.0657 158.488 26.1309 158.463 26.1916C158.437 26.2524 158.4 26.3075 158.354 26.354L152.354 32.354C152.26 32.4479 152.133 32.5006 152 32.5006C151.867 32.5006 151.74 32.4479 151.646 32.354C151.552 32.2601 151.499 32.1328 151.499 32C151.499 31.8672 151.552 31.7399 151.646 31.646L157.293 26L151.646 20.354C151.599 20.3075 151.562 20.2524 151.537 20.1916C151.512 20.1309 151.499 20.0657 151.499 20C151.499 19.9342 151.512 19.8691 151.537 19.8083C151.562 19.7476 151.599 19.6924 151.646 19.646Z" fill="black"/>
</svg>
