<svg width="40" height="40" viewBox="0 0 40 40" fill="none" xmlns="http://www.w3.org/2000/svg">
<g clip-path="url(#clip0_164_936)">
<path d="M39.5 20C39.5 25.1717 37.4455 30.1316 33.7886 33.7886C30.1316 37.4455 25.1717 39.5 20 39.5C14.8283 39.5 9.86838 37.4455 6.21142 33.7886C2.55446 30.1316 0.5 25.1717 0.5 20C0.5 14.8283 2.55446 9.86838 6.21142 6.21142C9.86838 2.55446 14.8283 0.5 20 0.5C25.1717 0.5 30.1316 2.55446 33.7886 6.21142C37.4455 9.86838 39.5 14.8283 39.5 20ZM21.75 11.25C21.75 10.7859 21.5656 10.3408 21.2374 10.0126C20.9092 9.68437 20.4641 9.5 20 9.5C19.5359 9.5 19.0908 9.68437 18.7626 10.0126C18.4344 10.3408 18.25 10.7859 18.25 11.25V18.25H11.25C10.7859 18.25 10.3408 18.4344 10.0126 18.7626C9.68437 19.0908 9.5 19.5359 9.5 20C9.5 20.4641 9.68437 20.9092 10.0126 21.2374C10.3408 21.5656 10.7859 21.75 11.25 21.75H18.25V28.75C18.25 29.2141 18.4344 29.6592 18.7626 29.9874C19.0908 30.3156 19.5359 30.5 20 30.5C20.4641 30.5 20.9092 30.3156 21.2374 29.9874C21.5656 29.6592 21.75 29.2141 21.75 28.75V21.75H28.75C29.2141 21.75 29.6592 21.5656 29.9874 21.2374C30.3156 20.9092 30.5 20.4641 30.5 20C30.5 19.5359 30.3156 19.0908 29.9874 18.7626C29.6592 18.4344 29.2141 18.25 28.75 18.25H21.75V11.25Z" fill="#F6D468" stroke="#D6D6D6"/>
</g>
<defs>
<clipPath id="clip0_164_936">
<rect width="40" height="40" fill="white"/>
</clipPath>
</defs>
</svg>
