<svg width="25" height="25" viewBox="0 0 25 25" fill="none" xmlns="http://www.w3.org/2000/svg">
<g clip-path="url(#clip0_123_855)">
<path d="M12.5 7.42822C11.8339 7.42822 11.1744 7.55941 10.5591 7.8143C9.94371 8.06918 9.38459 8.44277 8.91362 8.91374C8.44265 9.38471 8.06906 9.94383 7.81417 10.5592C7.55929 11.1745 7.4281 11.834 7.4281 12.5001C7.4281 13.1661 7.55929 13.8257 7.81417 14.441C8.06906 15.0564 8.44265 15.6155 8.91362 16.0865C9.38459 16.5574 9.94371 16.931 10.5591 17.1859C11.1744 17.4408 11.8339 17.572 12.5 17.572C13.8451 17.572 15.1352 17.0376 16.0863 16.0865C17.0375 15.1353 17.5719 13.8452 17.5719 12.5001C17.5719 11.155 17.0375 9.8649 16.0863 8.91374C15.1352 7.96258 13.8451 7.42822 12.5 7.42822ZM8.9906 12.5001C8.9906 11.5694 9.36034 10.6767 10.0185 10.0186C10.6766 9.36046 11.5692 8.99072 12.5 8.99072C13.4307 8.99072 14.3233 9.36046 14.9815 10.0186C15.6396 10.6767 16.0094 11.5694 16.0094 12.5001C16.0094 13.4308 15.6396 14.3235 14.9815 14.9816C14.3233 15.6397 13.4307 16.0095 12.5 16.0095C11.5692 16.0095 10.6766 15.6397 10.0185 14.9816C9.36034 14.3235 8.9906 13.4308 8.9906 12.5001Z" fill="black"/>
<path d="M15.3063 2.09863C14.4828 -0.698242 10.5172 -0.698242 9.69376 2.09863L9.54689 2.59707C9.48938 2.79231 9.38891 2.9722 9.25285 3.12357C9.11679 3.27493 8.94858 3.39393 8.76055 3.47184C8.57252 3.54975 8.36944 3.58459 8.16619 3.57382C7.96295 3.56304 7.76469 3.50692 7.58595 3.40957L7.1297 3.15957C4.5672 1.76582 1.76564 4.56895 3.16095 7.12988L3.40939 7.58613C3.50674 7.76487 3.56286 7.96313 3.57363 8.16637C3.58441 8.36962 3.54956 8.5727 3.47166 8.76073C3.39375 8.94876 3.27475 9.11697 3.12338 9.25303C2.97202 9.3891 2.79212 9.48956 2.59689 9.54707L2.09845 9.69394C-0.698425 10.5174 -0.698425 14.483 2.09845 15.3064L2.59689 15.4533C2.79212 15.5108 2.97202 15.6113 3.12338 15.7474C3.27475 15.8834 3.39375 16.0516 3.47166 16.2397C3.54956 16.4277 3.58441 16.6308 3.57363 16.834C3.56286 17.0373 3.50674 17.2355 3.40939 17.4143L3.15939 17.8705C1.76564 20.433 4.5672 23.2361 7.1297 21.8393L7.58595 21.5908C7.76469 21.4935 7.96295 21.4373 8.16619 21.4266C8.36944 21.4158 8.57252 21.4506 8.76055 21.5286C8.94858 21.6065 9.11679 21.7255 9.25285 21.8768C9.38891 22.0282 9.48938 22.2081 9.54689 22.4033L9.69376 22.9018C10.5172 25.6986 14.4828 25.6986 15.3063 22.9018L15.4531 22.4033C15.5106 22.2081 15.6111 22.0282 15.7472 21.8768C15.8832 21.7255 16.0514 21.6065 16.2395 21.5286C16.4275 21.4506 16.6306 21.4158 16.8338 21.4266C17.0371 21.4373 17.2353 21.4935 17.4141 21.5908L17.8703 21.8408C20.4328 23.2361 23.236 20.4314 21.8391 17.8705L21.5906 17.4143C21.4933 17.2355 21.4372 17.0373 21.4264 16.834C21.4156 16.6308 21.4505 16.4277 21.5284 16.2397C21.6063 16.0516 21.7253 15.8834 21.8766 15.7474C22.028 15.6113 22.2079 15.5108 22.4031 15.4533L22.9016 15.3064C25.6985 14.483 25.6985 10.5174 22.9016 9.69394L22.4031 9.54707C22.2079 9.48956 22.028 9.3891 21.8766 9.25303C21.7253 9.11697 21.6063 8.94876 21.5284 8.76073C21.4505 8.5727 21.4156 8.36962 21.4264 8.16637C21.4372 7.96313 21.4933 7.76487 21.5906 7.58613L21.8406 7.12988C23.236 4.56738 20.4313 1.76582 17.8703 3.16113L17.4141 3.40957C17.2353 3.50692 17.0371 3.56304 16.8338 3.57382C16.6306 3.58459 16.4275 3.54975 16.2395 3.47184C16.0514 3.39393 15.8832 3.27493 15.7472 3.12357C15.6111 2.9722 15.5106 2.79231 15.4531 2.59707L15.3063 2.09863ZM11.1922 2.54082C11.5766 1.23613 13.4234 1.23613 13.8078 2.54082L13.9547 3.03926C14.0782 3.45814 14.2938 3.84408 14.5858 4.16879C14.8779 4.49349 15.2388 4.74873 15.6423 4.91579C16.0458 5.08285 16.4816 5.15749 16.9176 5.13424C17.3537 5.111 17.7791 4.99045 18.1625 4.78145L18.6172 4.53145C19.8109 3.88301 21.1172 5.1877 20.4672 6.38301L20.2188 6.83926C20.0101 7.22274 19.8898 7.64805 19.8668 8.08403C19.8438 8.52001 19.9187 8.95562 20.0859 9.35892C20.2531 9.76223 20.5084 10.123 20.8331 10.4148C21.1578 10.7067 21.5437 10.9222 21.9625 11.0455L22.4594 11.1924C23.7641 11.5768 23.7641 13.4236 22.4594 13.808L21.961 13.9549C21.5421 14.0784 21.1561 14.294 20.8314 14.586C20.5067 14.878 20.2515 15.239 20.0844 15.6425C19.9174 16.046 19.8427 16.4817 19.866 16.9178C19.8892 17.3539 20.0098 17.7793 20.2188 18.1627L20.4688 18.6174C21.1172 19.8111 19.8125 21.1174 18.6172 20.4674L18.1625 20.2189C17.779 20.01 17.3535 19.8895 16.9173 19.8663C16.4812 19.8432 16.0454 19.918 15.6419 20.0852C15.2384 20.2524 14.8774 20.5078 14.5855 20.8327C14.2935 21.1576 14.078 21.5437 13.9547 21.9627L13.8078 22.4596C13.4234 23.7643 11.5766 23.7643 11.1922 22.4596L11.0453 21.9611C10.9218 21.5425 10.7062 21.1567 10.4143 20.8322C10.1224 20.5077 9.76156 20.2525 9.35828 20.0855C8.95499 19.9184 8.51945 19.8437 8.08356 19.8668C7.64766 19.8899 7.22245 20.0102 6.83907 20.2189L6.38282 20.4689C5.18907 21.1174 3.88282 19.8127 4.53282 18.6174L4.78126 18.1627C4.99056 17.7792 5.11134 17.3537 5.13474 16.9174C5.15814 16.4812 5.08357 16.0452 4.91649 15.6415C4.74941 15.2378 4.49407 14.8767 4.1692 14.5845C3.84433 14.2924 3.45818 14.0767 3.03907 13.9533L2.54064 13.8064C1.23595 13.4221 1.23595 11.5752 2.54064 11.1908L3.03907 11.0439C3.45752 10.9204 3.84304 10.7048 4.16742 10.413C4.4918 10.1212 4.74683 9.76055 4.91385 9.35747C5.08086 8.95439 5.15563 8.51906 5.13269 8.08335C5.10975 7.64764 4.98968 7.22257 4.78126 6.83926L4.53126 6.38301C3.88282 5.18926 5.18751 3.88301 6.38282 4.53301L6.83907 4.78145C7.22245 4.99016 7.64766 5.11047 8.08356 5.13356C8.51945 5.15665 8.95499 5.08194 9.35828 4.91491C9.76156 4.74787 10.1224 4.49274 10.4143 4.1682C10.7062 3.84365 10.9218 3.45792 11.0453 3.03926L11.1922 2.54082Z" fill="black"/>
</g>
<defs>
<clipPath id="clip0_123_855">
<rect width="25" height="25" fill="white"/>
</clipPath>
</defs>
</svg>
