<svg width="50" height="50" viewBox="0 0 50 50" fill="none" xmlns="http://www.w3.org/2000/svg">
<g clip-path="url(#clip0_589_879)">
<path d="M25 46.875C19.1984 46.875 13.6344 44.5703 9.53204 40.468C5.42968 36.3656 3.125 30.8016 3.125 25C3.125 19.1984 5.42968 13.6344 9.53204 9.53204C13.6344 5.42968 19.1984 3.125 25 3.125C30.8016 3.125 36.3656 5.42968 40.468 9.53204C44.5703 13.6344 46.875 19.1984 46.875 25C46.875 30.8016 44.5703 36.3656 40.468 40.468C36.3656 44.5703 30.8016 46.875 25 46.875ZM25 50C31.6304 50 37.9893 47.3661 42.6777 42.6777C47.3661 37.9893 50 31.6304 50 25C50 18.3696 47.3661 12.0107 42.6777 7.32233C37.9893 2.63392 31.6304 0 25 0C18.3696 0 12.0107 2.63392 7.32233 7.32233C2.63392 12.0107 0 18.3696 0 25C0 31.6304 2.63392 37.9893 7.32233 42.6777C12.0107 47.3661 18.3696 50 25 50Z" fill="black"/>
<path d="M15.625 20.3125C15.625 19.0693 16.1189 17.877 16.9979 16.9979C17.877 16.1189 19.0693 15.625 20.3125 15.625H29.6875C30.9307 15.625 32.123 16.1189 33.0021 16.9979C33.8811 17.877 34.375 19.0693 34.375 20.3125V29.6875C34.375 30.9307 33.8811 32.123 33.0021 33.0021C32.123 33.8811 30.9307 34.375 29.6875 34.375H20.3125C19.0693 34.375 17.877 33.8811 16.9979 33.0021C16.1189 32.123 15.625 30.9307 15.625 29.6875V20.3125Z" fill="#FB3D3D"/>
</g>
<defs>
<clipPath id="clip0_589_879">
<rect width="50" height="50" fill="white"/>
</clipPath>
</defs>
</svg>
