<svg width="106" height="42" viewBox="0 0 106 42" fill="none" xmlns="http://www.w3.org/2000/svg">
<g clip-path="url(#clip0_303_2524)">
<path d="M20.9055 0.887207H85.0944C96.1526 0.887207 105.117 9.89195 105.117 20.9999C105.117 32.1078 96.1526 41.1126 85.0944 41.1126H20.9055C9.84754 41.1126 0.883301 32.1078 0.883301 20.9999C0.883301 9.89195 9.84754 0.887207 20.9055 0.887207Z" fill="#FFEDED" stroke="#FF3E3E" stroke-width="3"/>
<path d="M16.15 15.981V14.3047H26.0938V15.981H22.085V27.2112H20.1526V15.981H16.15ZM28.2911 27.2112V14.3047H32.8709C33.8664 14.3047 34.6924 14.4769 35.349 14.8215C36.0099 15.166 36.5034 15.6428 36.8296 16.252C37.1559 16.857 37.319 17.5566 37.319 18.3506C37.319 19.1404 37.1538 19.8358 36.8234 20.4366C36.4971 21.0331 36.0036 21.4974 35.3428 21.8293C34.6861 22.1612 33.8601 22.3272 32.8647 22.3272H29.3953V20.6508H32.689C33.3164 20.6508 33.8266 20.5605 34.2198 20.3798C34.6171 20.1992 34.9078 19.9366 35.0918 19.5921C35.2758 19.2476 35.3679 18.8338 35.3679 18.3506C35.3679 17.8632 35.2738 17.441 35.0856 17.0839C34.9015 16.7268 34.6109 16.4537 34.2135 16.2646C33.8204 16.0713 33.3038 15.9747 32.6639 15.9747H30.2298V27.2112H28.2911ZM34.6338 21.3881L37.8084 27.2112H35.6L32.4883 21.3881H34.6338ZM40.7632 27.2112H38.7055L43.3292 14.3047H45.5688L50.1926 27.2112H48.1348L44.5024 16.6491H44.402L40.7632 27.2112ZM41.1083 22.157H47.7835V23.7956H41.1083V22.157ZM53.9865 14.3047V27.2112H52.048V14.3047H53.9865ZM67.1799 14.3047V27.2112H65.3985L58.8675 17.7456H58.7483V27.2112H56.8097V14.3047H58.604L65.1412 23.7829H65.2601V14.3047H67.1799ZM70.0077 27.2112V14.3047H78.0632V15.981H71.9464V19.9135H77.6433V21.5835H71.9464V25.5349H78.1385V27.2112H70.0077ZM80.6531 27.2112V14.3047H85.2329C86.2281 14.3047 87.0543 14.4769 87.7109 14.8215C88.3717 15.166 88.8651 15.6428 89.1914 16.252C89.5176 16.857 89.6807 17.5566 89.6807 18.3506C89.6807 19.1404 89.5153 19.8358 89.1849 20.4366C88.8587 21.0331 88.3652 21.4974 87.7044 21.8293C87.0478 22.1612 86.2216 22.3272 85.2264 22.3272H81.7572V20.6508H85.0509C85.6781 20.6508 86.188 20.5605 86.5814 20.3798C86.9789 20.1992 87.2692 19.9366 87.4536 19.5921C87.6373 19.2476 87.7298 18.8338 87.7298 18.3506C87.7298 17.8632 87.6355 17.441 87.4471 17.0839C87.2634 16.7268 86.9725 16.4537 86.575 16.2646C86.1822 16.0713 85.6657 15.9747 85.0256 15.9747H82.5911V27.2112H80.6531ZM86.9954 21.3881L90.1701 27.2112H87.9618L84.8501 21.3881H86.9954Z" fill="#FF3E3E"/>
<mask id="mask0_303_2524" style="mask-type:luminance" maskUnits="userSpaceOnUse" x="15" y="13" width="77" height="15">
<path d="M91.2778 13.6055H15.3112V27.8027H91.2778V13.6055Z" fill="white"/>
<path d="M16.15 15.981V14.3047H26.0938V15.981H22.085V27.2112H20.1526V15.981H16.15ZM28.2911 27.2112V14.3047H32.8709C33.8664 14.3047 34.6924 14.4769 35.349 14.8215C36.0099 15.166 36.5034 15.6428 36.8296 16.252C37.1559 16.857 37.319 17.5566 37.319 18.3506C37.319 19.1404 37.1538 19.8358 36.8234 20.4366C36.4971 21.0331 36.0036 21.4974 35.3428 21.8293C34.6861 22.1612 33.8601 22.3272 32.8647 22.3272H29.3953V20.6508H32.689C33.3164 20.6508 33.8266 20.5605 34.2198 20.3798C34.6171 20.1992 34.9078 19.9366 35.0918 19.5921C35.2758 19.2476 35.3679 18.8338 35.3679 18.3506C35.3679 17.8632 35.2738 17.441 35.0856 17.0839C34.9015 16.7268 34.6109 16.4537 34.2135 16.2646C33.8204 16.0713 33.3038 15.9747 32.6639 15.9747H30.2298V27.2112H28.2911ZM34.6338 21.3881L37.8084 27.2112H35.6L32.4883 21.3881H34.6338ZM40.7632 27.2112H38.7055L43.3292 14.3047H45.5688L50.1926 27.2112H48.1348L44.5024 16.6491H44.402L40.7632 27.2112ZM41.1083 22.157H47.7835V23.7956H41.1083V22.157ZM53.9865 14.3047V27.2112H52.048V14.3047H53.9865ZM67.1799 14.3047V27.2112H65.3985L58.8675 17.7456H58.7483V27.2112H56.8097V14.3047H58.604L65.1412 23.7829H65.2601V14.3047H67.1799ZM70.0077 27.2112V14.3047H78.0632V15.981H71.9464V19.9135H77.6433V21.5835H71.9464V25.5349H78.1385V27.2112H70.0077ZM80.6531 27.2112V14.3047H85.2329C86.2281 14.3047 87.0543 14.4769 87.7109 14.8215C88.3717 15.166 88.8651 15.6428 89.1914 16.252C89.5176 16.857 89.6807 17.5566 89.6807 18.3506C89.6807 19.1404 89.5153 19.8358 89.1849 20.4366C88.8587 21.0331 88.3652 21.4974 87.7044 21.8293C87.0478 22.1612 86.2216 22.3272 85.2264 22.3272H81.7572V20.6508H85.0509C85.6781 20.6508 86.188 20.5605 86.5814 20.3798C86.9789 20.1992 87.2692 19.9366 87.4536 19.5921C87.6373 19.2476 87.7298 18.8338 87.7298 18.3506C87.7298 17.8632 87.6355 17.441 87.4471 17.0839C87.2634 16.7268 86.9725 16.4537 86.575 16.2646C86.1822 16.0713 85.6657 15.9747 85.0256 15.9747H82.5911V27.2112H80.6531ZM86.9954 21.3881L90.1701 27.2112H87.9618L84.8501 21.3881H86.9954Z" fill="black"/>
</mask>
<g mask="url(#mask0_303_2524)">
<path d="M16.15 15.9808H15.5612V16.5723H16.15V15.9808ZM16.15 14.3044V13.7129H15.5612V14.3044H16.15ZM26.0938 14.3044H26.6827V13.7129H26.0938V14.3044ZM26.0938 15.9808V16.5723H26.6827V15.9808H26.0938ZM22.085 15.9808V15.3892H21.4961V15.9808H22.085ZM22.085 27.211V27.8025H22.6739V27.211H22.085ZM20.1527 27.211H19.5638V27.8025H20.1527V27.211ZM20.1527 15.9808H20.7416V15.3892H20.1527V15.9808ZM16.7389 15.9808V14.3044H15.5612V15.9808H16.7389ZM16.15 14.896H26.0938V13.7129H16.15V14.896ZM25.505 14.3044V15.9808H26.6827V14.3044H25.505ZM26.0938 15.3892H22.085V16.5723H26.0938V15.3892ZM21.4961 15.9808V27.211H22.6739V15.9808H21.4961ZM22.085 26.6194H20.1527V27.8025H22.085V26.6194ZM20.7416 27.211V15.9808H19.5638V27.211H20.7416ZM20.1527 15.3892H16.15V16.5723H20.1527V15.3892ZM28.2912 27.211H27.7023V27.8025H28.2912V27.211ZM28.2912 14.3044V13.7129H27.7023V14.3044H28.2912ZM35.3491 14.8212L35.0765 15.3456L35.0778 15.3463L35.3491 14.8212ZM36.8296 16.2518L36.3111 16.532L36.3118 16.5335L36.8296 16.2518ZM36.8234 20.4363L36.3079 20.1502L36.3072 20.1515L36.8234 20.4363ZM35.3428 21.8291L35.0795 21.3L35.0781 21.3006L35.3428 21.8291ZM29.3953 22.3269H28.8064V22.9185H29.3953V22.3269ZM29.3953 20.6506V20.059H28.8064V20.6506H29.3953ZM34.2198 20.3796L33.977 19.8407L33.9748 19.8416L34.2198 20.3796ZM35.0856 17.0837L34.5626 17.3556L34.5651 17.3604L35.0856 17.0837ZM34.2136 16.2644L33.9547 16.7957L33.9615 16.799L34.2136 16.2644ZM30.2298 15.9745V15.383H29.6409V15.9745H30.2298ZM30.2298 27.211V27.8025H30.8187V27.211H30.2298ZM34.6339 21.3879L35.1504 21.1038L34.9828 20.7963H34.6339V21.3879ZM37.8084 27.211V27.8025H38.8022L38.3249 26.9269L37.8084 27.211ZM35.6 27.211L35.0812 27.4908L35.2478 27.8025H35.6V27.211ZM32.4883 21.3879V20.7963H31.5038L31.9694 21.6677L32.4883 21.3879ZM28.8801 27.211V14.3044H27.7023V27.211H28.8801ZM28.2912 14.896H32.871V13.7129H28.2912V14.896ZM32.871 14.896C33.8027 14.896 34.5279 15.0577 35.0765 15.3456L35.6217 14.2969C34.857 13.8957 33.9301 13.7129 32.871 13.7129V14.896ZM35.0778 15.3463C35.6425 15.6407 36.0455 16.0361 36.3111 16.532L37.3483 15.9715C36.9614 15.249 36.3773 14.6908 35.6204 14.2962L35.0778 15.3463ZM36.3118 16.5335C36.5847 17.0395 36.7301 17.6394 36.7301 18.3503H37.9079C37.9079 17.4732 37.7271 16.6741 37.3475 15.97L36.3118 16.5335ZM36.7301 18.3503C36.7301 19.0554 36.5834 19.6495 36.3079 20.1502L37.3389 20.7223C37.7243 20.0216 37.9079 19.225 37.9079 18.3503H36.7301ZM36.3072 20.1515C36.0438 20.6332 35.6434 21.0167 35.0795 21.3L35.6062 22.3581C36.3639 21.9776 36.9505 21.4326 37.3396 20.7211L36.3072 20.1515ZM35.0781 21.3006C34.5274 21.579 33.7992 21.7354 32.8647 21.7354V22.9185C33.9211 22.9185 34.845 22.7429 35.6075 22.3575L35.0781 21.3006ZM32.8647 21.7354H29.3953V22.9185H32.8647V21.7354ZM29.9842 22.3269V20.6506H28.8064V22.3269H29.9842ZM29.3953 21.2421H32.6891V20.059H29.3953V21.2421ZM32.6891 21.2421C33.3658 21.2421 33.9682 21.1457 34.4648 20.9175L33.9748 19.8416C33.6852 19.9748 33.267 20.059 32.6891 20.059V21.2421ZM34.4627 20.9185C34.9629 20.691 35.3582 20.3443 35.6108 19.8715L34.573 19.3121C34.4574 19.5284 34.2714 19.7068 33.977 19.8407L34.4627 20.9185ZM35.6108 19.8715C35.8503 19.4231 35.9568 18.9084 35.9568 18.3503H34.779C34.779 18.7586 34.7015 19.0716 34.573 19.3121L35.6108 19.8715ZM35.9568 18.3503C35.9568 17.7862 35.8476 17.2651 35.6061 16.8069L34.5651 17.3604C34.7 17.6163 34.779 17.9397 34.779 18.3503H35.9568ZM35.6086 16.8117C35.3594 16.3282 34.9673 15.9685 34.4657 15.7298L33.9615 16.799C34.2544 16.9384 34.4437 17.1248 34.5626 17.3556L35.6086 16.8117ZM34.4724 15.733C33.9702 15.4862 33.3553 15.383 32.664 15.383V16.5661C33.2524 16.5661 33.6706 16.6561 33.9547 16.7957L34.4724 15.733ZM32.664 15.383H30.2298V16.5661H32.664V15.383ZM29.6409 15.9745V27.211H30.8187V15.9745H29.6409ZM30.2298 26.6194H28.2912V27.8025H30.2298V26.6194ZM34.1173 21.6721L37.2919 27.4951L38.3249 26.9269L35.1504 21.1038L34.1173 21.6721ZM37.8084 26.6194H35.6V27.8025H37.8084V26.6194ZM36.1189 26.9312L33.0072 21.1081L31.9694 21.6677L35.0812 27.4908L36.1189 26.9312ZM32.4883 21.9794H34.6339V20.7963H32.4883V21.9794ZM40.7632 27.211V27.8025H41.1827L41.3197 27.4044L40.7632 27.211ZM38.7055 27.211L38.1514 27.0107L37.8677 27.8025H38.7055V27.211ZM43.3292 14.3044V13.7129H42.9153L42.7751 14.1041L43.3292 14.3044ZM45.5689 14.3044L46.123 14.1041L45.9829 13.7129H45.5689V14.3044ZM50.1926 27.211V27.8025H51.0303L50.7467 27.0107L50.1926 27.211ZM48.1348 27.211L47.5782 27.4041L47.7153 27.8025H48.1348V27.211ZM44.5024 16.6488L45.059 16.4557L44.922 16.0573H44.5024V16.6488ZM44.402 16.6488V16.0573H43.9826L43.8455 16.4554L44.402 16.6488ZM41.1083 22.1568V21.5652H40.5194V22.1568H41.1083ZM47.7835 22.1568H48.3724V21.5652H47.7835V22.1568ZM47.7835 23.7953V24.3869H48.3724V23.7953H47.7835ZM41.1083 23.7953H40.5194V24.3869H41.1083V23.7953ZM40.7632 26.6194H38.7055V27.8025H40.7632V26.6194ZM39.2596 27.4113L43.8833 14.5047L42.7751 14.1041L38.1514 27.0107L39.2596 27.4113ZM43.3292 14.896H45.5689V13.7129H43.3292V14.896ZM45.0148 14.5047L49.6385 27.4113L50.7467 27.0107L46.123 14.1041L45.0148 14.5047ZM50.1926 26.6194H48.1348V27.8025H50.1926V26.6194ZM48.6915 27.0178L45.059 16.4557L43.9458 16.8419L47.5782 27.4041L48.6915 27.0178ZM44.5024 16.0573H44.402V17.2404H44.5024V16.0573ZM43.8455 16.4554L40.2067 27.0175L41.3197 27.4044L44.9585 16.8422L43.8455 16.4554ZM41.1083 22.7483H47.7835V21.5652H41.1083V22.7483ZM47.1946 22.1568V23.7953H48.3724V22.1568H47.1946ZM47.7835 23.2038H41.1083V24.3869H47.7835V23.2038ZM41.6972 23.7953V22.1568H40.5194V23.7953H41.6972ZM53.9866 14.3044H54.5755V13.7129H53.9866V14.3044ZM53.9866 27.211V27.8025H54.5755V27.211H53.9866ZM52.048 27.211H51.4591V27.8025H52.048V27.211ZM52.048 14.3044V13.7129H51.4591V14.3044H52.048ZM53.3977 14.3044V27.211H54.5755V14.3044H53.3977ZM53.9866 26.6194H52.048V27.8025H53.9866V26.6194ZM52.6369 27.211V14.3044H51.4591V27.211H52.6369ZM52.048 14.896H53.9866V13.7129H52.048V14.896ZM67.1799 14.3044H67.7688V13.7129H67.1799V14.3044ZM67.1799 27.211V27.8025H67.7688V27.211H67.1799ZM65.3985 27.211L64.9145 27.5479L65.09 27.8025H65.3985V27.211ZM58.8675 17.7454L59.3512 17.4084L59.1757 17.1538H58.8675V17.7454ZM58.7483 17.7454V17.1538H58.1594V17.7454H58.7483ZM58.7483 27.211V27.8025H59.3371V27.211H58.7483ZM56.8098 27.211H56.2209V27.8025H56.8098V27.211ZM56.8098 14.3044V13.7129H56.2209V14.3044H56.8098ZM58.604 14.3044L59.088 13.9676L58.9125 13.7129H58.604V14.3044ZM65.1412 23.7827L64.6571 24.1195L64.8326 24.3742H65.1412V23.7827ZM65.2601 23.7827V24.3742H65.849V23.7827H65.2601ZM65.2601 14.3044V13.7129H64.6713V14.3044H65.2601ZM66.591 14.3044V27.211H67.7688V14.3044H66.591ZM67.1799 26.6194H65.3985V27.8025H67.1799V26.6194ZM65.8826 26.874L59.3512 17.4084L58.3835 18.0823L64.9145 27.5479L65.8826 26.874ZM58.8675 17.1538H58.7483V18.3369H58.8675V17.1538ZM58.1594 17.7454V27.211H59.3371V17.7454H58.1594ZM58.7483 26.6194H56.8098V27.8025H58.7483V26.6194ZM57.3987 27.211V14.3044H56.2209V27.211H57.3987ZM56.8098 14.896H58.604V13.7129H56.8098V14.896ZM58.12 14.6413L64.6571 24.1195L65.6253 23.4458L59.088 13.9676L58.12 14.6413ZM65.1412 24.3742H65.2601V23.1911H65.1412V24.3742ZM65.849 23.7827V14.3044H64.6713V23.7827H65.849ZM65.2601 14.896H67.1799V13.7129H65.2601V14.896ZM70.0078 27.211H69.4189V27.8025H70.0078V27.211ZM70.0078 14.3044V13.7129H69.4189V14.3044H70.0078ZM78.0632 14.3044H78.6521V13.7129H78.0632V14.3044ZM78.0632 15.9808V16.5723H78.6521V15.9808H78.0632ZM71.9464 15.9808V15.3892H71.3575V15.9808H71.9464ZM71.9464 19.9133H71.3575V20.5048H71.9464V19.9133ZM77.6433 19.9133H78.2322V19.3217H77.6433V19.9133ZM77.6433 21.5833V22.1748H78.2322V21.5833H77.6433ZM71.9464 21.5833V20.9917H71.3575V21.5833H71.9464ZM71.9464 25.5346H71.3575V26.1262H71.9464V25.5346ZM78.1386 25.5346H78.7274V24.9431H78.1386V25.5346ZM78.1386 27.211V27.8025H78.7274V27.211H78.1386ZM70.5966 27.211V14.3044H69.4189V27.211H70.5966ZM70.0078 14.896H78.0632V13.7129H70.0078V14.896ZM77.4743 14.3044V15.9808H78.6521V14.3044H77.4743ZM78.0632 15.3892H71.9464V16.5723H78.0632V15.3892ZM71.3575 15.9808V19.9133H72.5353V15.9808H71.3575ZM71.9464 20.5048H77.6433V19.3217H71.9464V20.5048ZM77.0544 19.9133V21.5833H78.2322V19.9133H77.0544ZM77.6433 20.9917H71.9464V22.1748H77.6433V20.9917ZM71.3575 21.5833V25.5346H72.5353V21.5833H71.3575ZM71.9464 26.1262H78.1386V24.9431H71.9464V26.1262ZM77.5497 25.5346V27.211H78.7274V25.5346H77.5497ZM78.1386 26.6194H70.0078V27.8025H78.1386V26.6194ZM80.6531 27.211H80.0642V27.8025H80.6531V27.211ZM80.6531 14.3044V13.7129H80.0642V14.3044H80.6531ZM87.7109 14.8212L87.4383 15.3456L87.4395 15.3463L87.7109 14.8212ZM89.1914 16.2518L88.6726 16.532L88.6738 16.5335L89.1914 16.2518ZM89.1849 20.4363L88.6696 20.1502L88.6691 20.1515L89.1849 20.4363ZM87.7045 21.8291L87.4412 21.3L87.4401 21.3006L87.7045 21.8291ZM81.7573 22.3269H81.1684V22.9185H81.7573V22.3269ZM81.7573 20.6506V20.059H81.1684V20.6506H81.7573ZM86.5815 20.3796L86.3388 19.8407L86.3365 19.8416L86.5815 20.3796ZM87.4471 17.0837L86.9242 17.3556L86.9265 17.3604L87.4471 17.0837ZM86.575 16.2644L86.3165 16.7957L86.3229 16.799L86.575 16.2644ZM82.5911 15.9745V15.383H82.0023V15.9745H82.5911ZM82.5911 27.211V27.8025H83.18V27.211H82.5911ZM86.9954 21.3879L87.5119 21.1038L87.3447 20.7963H86.9954V21.3879ZM90.1701 27.211V27.8025H91.1642L90.6866 26.9269L90.1701 27.211ZM87.9618 27.211L87.443 27.4908L87.6096 27.8025H87.9618V27.211ZM84.8501 21.3879V20.7963H83.8655L84.3313 21.6677L84.8501 21.3879ZM81.242 27.211V14.3044H80.0642V27.211H81.242ZM80.6531 14.896H85.2329V13.7129H80.6531V14.896ZM85.2329 14.896C86.1645 14.896 86.8894 15.0577 87.4383 15.3456L87.9836 14.2969C87.2186 13.8957 86.2917 13.7129 85.2329 13.7129V14.896ZM87.4395 15.3463C88.0042 15.6407 88.407 16.0361 88.6726 16.532L89.7102 15.9715C89.3233 15.249 88.7391 14.6908 87.9818 14.2962L87.4395 15.3463ZM88.6738 16.5335C88.9464 17.0395 89.0919 17.6394 89.0919 18.3503H90.2697C90.2697 17.4732 90.0889 16.6741 89.709 15.97L88.6738 16.5335ZM89.0919 18.3503C89.0919 19.0554 88.9453 19.6495 88.6696 20.1502L89.7008 20.7223C90.0859 20.0216 90.2697 19.225 90.2697 18.3503H89.0919ZM88.6691 20.1515C88.4052 20.6332 88.0048 21.0167 87.4412 21.3L87.9677 22.3581C88.7256 21.9776 89.3121 21.4326 89.7014 20.7211L88.6691 20.1515ZM87.4401 21.3006C86.8889 21.579 86.161 21.7354 85.2264 21.7354V22.9185C86.2829 22.9185 87.2068 22.7429 87.9689 22.3575L87.4401 21.3006ZM85.2264 21.7354H81.7573V22.9185H85.2264V21.7354ZM82.3462 22.3269V20.6506H81.1684V22.3269H82.3462ZM81.7573 21.2421H85.0509V20.059H81.7573V21.2421ZM85.0509 21.2421C85.7276 21.2421 86.33 21.1457 86.8264 20.9175L86.3365 19.8416C86.0467 19.9748 85.6286 20.059 85.0509 20.059V21.2421ZM86.8241 20.9185C87.3246 20.691 87.7198 20.3443 87.9724 19.8715L86.9348 19.3121C86.8194 19.5284 86.6333 19.7068 86.3388 19.8407L86.8241 20.9185ZM87.9724 19.8715C88.2121 19.4231 88.3187 18.9084 88.3187 18.3503H87.1409C87.1409 18.7586 87.0632 19.0716 86.9348 19.3121L87.9724 19.8715ZM88.3187 18.3503C88.3187 17.7862 88.2091 17.2651 87.9677 16.8069L86.9265 17.3604C87.0614 17.6163 87.1409 17.9397 87.1409 18.3503H88.3187ZM87.97 16.8117C87.7209 16.3282 87.3288 15.9685 86.827 15.7298L86.3229 16.799C86.6162 16.9384 86.8052 17.1248 86.9242 17.3556L87.97 16.8117ZM86.8341 15.733C86.3318 15.4862 85.717 15.383 85.0256 15.383V16.5661C85.6139 16.5661 86.032 16.6561 86.3165 16.7957L86.8341 15.733ZM85.0256 15.383H82.5911V16.5661H85.0256V15.383ZM82.0023 15.9745V27.211H83.18V15.9745H82.0023ZM82.5911 26.6194H80.6531V27.8025H82.5911V26.6194ZM86.479 21.6721L89.6537 27.4951L90.6866 26.9269L87.5119 21.1038L86.479 21.6721ZM90.1701 26.6194H87.9618V27.8025H90.1701V26.6194ZM88.4806 26.9312L85.3689 21.1081L84.3313 21.6677L87.443 27.4908L88.4806 26.9312ZM84.8501 21.9794H86.9954V20.7963H84.8501V21.9794Z" fill="white"/>
</g>
</g>
<defs>
<clipPath id="clip0_303_2524">
<rect width="106" height="42" fill="white"/>
</clipPath>
</defs>
</svg>
