<svg width="171" height="50" viewBox="0 0 171 50" fill="none" xmlns="http://www.w3.org/2000/svg">
<rect x="0.5" y="0.5" width="170" height="49" rx="19.5" fill="#F6D468" stroke="black"/>
<path d="M51.553 19.52C54.409 19.52 56.243 20.486 56.243 22.054C56.243 23.622 54.409 24.574 51.553 24.574C48.697 24.574 46.863 23.622 46.863 22.054C46.863 20.486 48.697 19.52 51.553 19.52ZM51.553 20.962C49.775 20.962 48.781 21.312 48.781 22.054C48.781 22.782 49.775 23.146 51.553 23.146C53.317 23.146 54.325 22.782 54.325 22.054C54.325 21.312 53.317 20.962 51.553 20.962ZM47.045 27.682H56.005V32.106H47.045V27.682ZM54.185 29.152H48.879V30.636H54.185V29.152ZM45.687 25.316H57.405V26.786H45.687V25.316ZM61.5759 19.954H63.1299V21.116C63.1299 23.72 61.9679 26.002 59.4199 26.856L58.4539 25.358C60.6659 24.644 61.5759 22.894 61.5759 21.116V19.954ZM61.9679 19.954H63.4659V21.032C63.4659 22.754 64.3059 24.35 66.3639 25.008L65.3979 26.464C63.0039 25.638 61.9679 23.552 61.9679 21.032V19.954ZM67.5539 19.282H69.4159V26.87H67.5539V19.282ZM65.0199 27.206C67.7639 27.206 69.4579 28.144 69.4579 29.726C69.4579 31.322 67.7639 32.246 65.0199 32.246C62.2759 32.246 60.5819 31.322 60.5819 29.726C60.5819 28.144 62.2759 27.206 65.0199 27.206ZM65.0199 28.648C63.3399 28.648 62.4439 28.998 62.4439 29.726C62.4439 30.454 63.3399 30.818 65.0199 30.818C66.7139 30.818 67.6099 30.454 67.6099 29.726C67.6099 28.998 66.7139 28.648 65.0199 28.648ZM65.1879 21.634H67.8199V23.146H65.1879V21.634ZM72.9008 22.46H81.8888V23.944H72.9008V22.46ZM72.9008 19.464H74.7488V23.146H72.9008V19.464ZM71.4588 25.316H83.1908V26.786H71.4588V25.316ZM76.3728 23.398H78.2348V25.96H76.3728V23.398ZM72.7608 27.78H81.7488V32.246H79.8868V29.264H72.7608V27.78ZM90.1897 19.52C93.0457 19.52 94.8797 20.486 94.8797 22.054C94.8797 23.622 93.0457 24.574 90.1897 24.574C87.3337 24.574 85.4997 23.622 85.4997 22.054C85.4997 20.486 87.3337 19.52 90.1897 19.52ZM90.1897 20.962C88.4117 20.962 87.4177 21.312 87.4177 22.054C87.4177 22.782 88.4117 23.146 90.1897 23.146C91.9537 23.146 92.9617 22.782 92.9617 22.054C92.9617 21.312 91.9537 20.962 90.1897 20.962ZM85.6817 27.682H94.6417V32.106H85.6817V27.682ZM92.8217 29.152H87.5157V30.636H92.8217V29.152ZM84.3237 25.316H96.0417V26.786H84.3237V25.316ZM108.991 19.282H110.839V32.246H108.991V19.282ZM110.419 24.336H112.715V25.89H110.419V24.336ZM100.619 21.2H108.165V22.684H100.619V21.2ZM104.413 23.412C106.303 23.412 107.703 24.7 107.703 26.506C107.703 28.312 106.303 29.6 104.413 29.6C102.523 29.6 101.123 28.312 101.123 26.506C101.123 24.7 102.523 23.412 104.413 23.412ZM104.413 24.924C103.531 24.924 102.901 25.512 102.901 26.506C102.901 27.5 103.531 28.088 104.413 28.088C105.295 28.088 105.925 27.5 105.925 26.506C105.925 25.512 105.295 24.924 104.413 24.924ZM103.475 19.492H105.337V21.76H103.475V19.492ZM122.486 19.282H124.362V32.246H122.486V19.282ZM118.664 20.626H120.512C120.512 24.588 119.168 27.836 114.562 30.062L113.596 28.578C117.32 26.786 118.664 24.434 118.664 20.962V20.626ZM114.282 20.626H119.546V22.096H114.282V20.626Z" fill="black"/>
</svg>
